HIERARCHY
ROOT mixamorig:Hips
{
	OFFSET 0.00 0.00 0.00
	CHANNELS 6 Xposition Yposition Zposition Zrotation Yrotation Xrotation
	JOINT mixamorig:Spine
	{
		OFFSET	0.0125	10.4452	-0.9963
		CHANNELS 3 Zrotation Yrotation Xrotation
		JOINT mixamorig:Spine1
		{
			OFFSET	0.0145	12.1861	-1.1623
			CHANNELS 3 Zrotation Yrotation Xrotation
			JOINT mixamorig:Spine2
			{
				OFFSET	0.0166	13.9270	-1.3284
				CHANNELS 3 Zrotation Yrotation Xrotation
				JOINT mixamorig:Neck
				{
					OFFSET	0.0187	15.6679	-1.4944
					CHANNELS 3 Zrotation Yrotation Xrotation
					JOINT mixamorig:Head
					{
						OFFSET	-0.0000	7.0878	0.8887
						CHANNELS 3 Zrotation Yrotation Xrotation
						End Site
						{
							OFFSET -0.0000 21.3244 2.6737
						}
					}
				}
				JOINT mixamorig:LeftShoulder
				{
					OFFSET	6.2331	12.5732	-1.4620
					CHANNELS 3 Zrotation Yrotation Xrotation
					JOINT mixamorig:LeftArm
					{
						OFFSET	12.4288	-6.1895	0.0647
						CHANNELS 3 Zrotation Yrotation Xrotation
						JOINT mixamorig:LeftForeArm
						{
							OFFSET	12.5822	-17.6989	-0.0651
							CHANNELS 3 Zrotation Yrotation Xrotation
							JOINT mixamorig:LeftHand
							{
								OFFSET	10.9147	-21.0687	11.6035
								CHANNELS 3 Zrotation Yrotation Xrotation
								JOINT mixamorig:LeftHandThumb1
								{
									OFFSET	-1.7358	-3.6666	2.6651
									CHANNELS 3 Zrotation Yrotation Xrotation
									JOINT mixamorig:LeftHandThumb2
									{
										OFFSET	-1.3886	-2.9333	2.1321
										CHANNELS 3 Zrotation Yrotation Xrotation
										JOINT mixamorig:LeftHandThumb3
										{
											OFFSET	-1.7918	-3.3945	1.6896
											CHANNELS 3 Zrotation Yrotation Xrotation
											End Site
											{
												OFFSET -1.1716 -2.6948 1.2270
											}
										}
									}
								}
								JOINT mixamorig:LeftHandIndex1
								{
									OFFSET	1.2042	-11.6606	7.5887
									CHANNELS 3 Zrotation Yrotation Xrotation
									JOINT mixamorig:LeftHandIndex2
									{
										OFFSET	-0.0885	-2.2672	1.0042
										CHANNELS 3 Zrotation Yrotation Xrotation
										JOINT mixamorig:LeftHandIndex3
										{
											OFFSET	-0.3002	-1.9399	0.5096
											CHANNELS 3 Zrotation Yrotation Xrotation
											End Site
											{
												OFFSET -0.2176 -2.6233 0.6157
											}
										}
									}
								}
								JOINT mixamorig:LeftHandMiddle1
								{
									OFFSET	3.0635	-12.2364	5.5160
									CHANNELS 3 Zrotation Yrotation Xrotation
									JOINT mixamorig:LeftHandMiddle2
									{
										OFFSET	0.4236	-2.6124	0.6959
										CHANNELS 3 Zrotation Yrotation Xrotation
										JOINT mixamorig:LeftHandMiddle3
										{
											OFFSET	-0.0346	-2.2988	0.2871
											CHANNELS 3 Zrotation Yrotation Xrotation
											End Site
											{
												OFFSET 0.2796 -2.9102 0.5104
											}
										}
									}
								}
								JOINT mixamorig:LeftHandRing1
								{
									OFFSET	4.3250	-12.3373	2.7720
									CHANNELS 3 Zrotation Yrotation Xrotation
									JOINT mixamorig:LeftHandRing2
									{
										OFFSET	0.0343	-2.6042	-0.1448
										CHANNELS 3 Zrotation Yrotation Xrotation
										JOINT mixamorig:LeftHandRing3
										{
											OFFSET	-0.4080	-2.1150	-0.2682
											CHANNELS 3 Zrotation Yrotation Xrotation
											End Site
											{
												OFFSET -0.1807 -2.8052 -0.0224
											}
										}
									}
								}
								JOINT mixamorig:LeftHandPinky1
								{
									OFFSET	4.5316	-12.9281	-0.0800
									CHANNELS 3 Zrotation Yrotation Xrotation
									JOINT mixamorig:LeftHandPinky2
									{
										OFFSET	-0.2254	-1.6990	-0.6318
										CHANNELS 3 Zrotation Yrotation Xrotation
										JOINT mixamorig:LeftHandPinky3
										{
											OFFSET	-0.4223	-1.3628	-0.4724
											CHANNELS 3 Zrotation Yrotation Xrotation
											End Site
											{
												OFFSET -0.7253 -1.5757 -0.7080
											}
										}
									}
								}
							}
						}
					}
				}
				JOINT mixamorig:RightShoulder
				{
					OFFSET	-6.1994	12.5731	-1.5268
					CHANNELS 3 Zrotation Yrotation Xrotation
					JOINT mixamorig:RightArm
					{
						OFFSET	-12.4361	-6.1894	-0.0647
						CHANNELS 3 Zrotation Yrotation Xrotation
						JOINT mixamorig:RightForeArm
						{
							OFFSET	-12.5822	-17.6989	0.1601
							CHANNELS 3 Zrotation Yrotation Xrotation
							JOINT mixamorig:RightHand
							{
								OFFSET	-10.9147	-21.0687	11.5252
								CHANNELS 3 Zrotation Yrotation Xrotation
								JOINT mixamorig:RightHandThumb1
								{
									OFFSET	1.8326	-3.8313	2.8102
									CHANNELS 3 Zrotation Yrotation Xrotation
									JOINT mixamorig:RightHandThumb2
									{
										OFFSET	1.4660	-3.0650	2.2481
										CHANNELS 3 Zrotation Yrotation Xrotation
										JOINT mixamorig:RightHandThumb3
										{
											OFFSET	1.7022	-3.2799	1.5927
											CHANNELS 3 Zrotation Yrotation Xrotation
											End Site
											{
												OFFSET 0.9222 -2.4964 1.2260
											}
										}
									}
								}
								JOINT mixamorig:RightHandIndex1
								{
									OFFSET	-1.2113	-11.6910	7.5909
									CHANNELS 3 Zrotation Yrotation Xrotation
									JOINT mixamorig:RightHandIndex2
									{
										OFFSET	0.1340	-2.2478	1.0804
										CHANNELS 3 Zrotation Yrotation Xrotation
										JOINT mixamorig:RightHandIndex3
										{
											OFFSET	0.2833	-1.9852	0.4907
											CHANNELS 3 Zrotation Yrotation Xrotation
											End Site
											{
												OFFSET 0.2347 -2.6272 0.4660
											}
										}
									}
								}
								JOINT mixamorig:RightHandMiddle1
								{
									OFFSET	-3.1183	-12.4952	5.5338
									CHANNELS 3 Zrotation Yrotation Xrotation
									JOINT mixamorig:RightHandMiddle2
									{
										OFFSET	-0.3657	-2.5472	0.7803
										CHANNELS 3 Zrotation Yrotation Xrotation
										JOINT mixamorig:RightHandMiddle3
										{
											OFFSET	0.0506	-2.2906	0.2557
											CHANNELS 3 Zrotation Yrotation Xrotation
											End Site
											{
												OFFSET -0.1704 -2.9156 0.4516
											}
										}
									}
								}
								JOINT mixamorig:RightHandRing1
								{
									OFFSET	-4.3615	-12.5986	2.8743
									CHANNELS 3 Zrotation Yrotation Xrotation
									JOINT mixamorig:RightHandRing2
									{
										OFFSET	0.0394	-2.4666	-0.2159
										CHANNELS 3 Zrotation Yrotation Xrotation
										JOINT mixamorig:RightHandRing3
										{
											OFFSET	0.4323	-2.1153	-0.2184
											CHANNELS 3 Zrotation Yrotation Xrotation
											End Site
											{
												OFFSET 0.0751 -2.6586 -0.0626
											}
										}
									}
								}
								JOINT mixamorig:RightHandPinky1
								{
									OFFSET	-4.4132	-11.5032	0.4194
									CHANNELS 3 Zrotation Yrotation Xrotation
									JOINT mixamorig:RightHandPinky2
									{
										OFFSET	-0.1665	-2.1237	-0.7208
										CHANNELS 3 Zrotation Yrotation Xrotation
										JOINT mixamorig:RightHandPinky3
										{
											OFFSET	0.5102	-1.7553	-0.6317
											CHANNELS 3 Zrotation Yrotation Xrotation
											End Site
											{
												OFFSET 0.3407 -2.2265 -0.9448
											}
										}
									}
								}
							}
						}
					}
				}
			}
		}
	}
	JOINT mixamorig:LeftUpLeg
	{
		OFFSET	10.1286	-5.8029	-0.5827
		CHANNELS 3 Zrotation Yrotation Xrotation
		JOINT mixamorig:LeftLeg
		{
			OFFSET	4.2353	-40.9156	0.1368
			CHANNELS 3 Zrotation Yrotation Xrotation
			JOINT mixamorig:LeftFoot
			{
				OFFSET	2.7471	-36.6710	-5.9597
				CHANNELS 3 Zrotation Yrotation Xrotation
				JOINT mixamorig:LeftToeBase
				{
					OFFSET	2.4527	-12.3426	15.4410
					CHANNELS 3 Zrotation Yrotation Xrotation
					End Site
					{
						OFFSET 1.4532 0.2140 7.5769
					}
				}
			}
		}
	}
	JOINT mixamorig:RightUpLeg
	{
		OFFSET	-10.0150	-5.8029	-0.7207
		CHANNELS 3 Zrotation Yrotation Xrotation
		JOINT mixamorig:RightLeg
		{
			OFFSET	-4.2353	-40.9157	0.2580
			CHANNELS 3 Zrotation Yrotation Xrotation
			JOINT mixamorig:RightFoot
			{
				OFFSET	-2.7471	-36.6708	-6.0475
				CHANNELS 3 Zrotation Yrotation Xrotation
				JOINT mixamorig:RightToeBase
				{
					OFFSET	-2.4527	-12.3428	15.3607
					CHANNELS 3 Zrotation Yrotation Xrotation
					End Site
					{
						OFFSET -1.4532 0.2139 7.5074
					}
				}
			}
		}
	}
}
MOTION
Frames: 4
Frame Time: 0.0333333
-0.2887 87.1730 2.1456 0.7199 -24.8135 -2.7822 4.5003 17.2833 3.3744 3.6035 2.1937 3.0371 3.6039 2.2724 2.9940 -4.1596 1.3456 2.0740 -7.6728 2.4726 5.2831 3.3616 -11.8187 3.0128 -13.9501 -10.7348 -33.7995 43.0146 -26.8079 -108.1990 24.0339 0.6600 5.6460 3.6160 -2.7030 13.2209 6.8593 5.2537 10.8707 31.9400 1.4483 45.4003 -54.3320 3.3256 46.0729 -69.0843 1.8907 47.8167 -47.8763 -1.9280 31.4059 -65.6700 6.0731 36.8151 -67.7850 13.4216 37.1899 -50.7747 6.9461 28.9869 -57.6167 1.0977 18.6568 -66.0973 24.2951 32.3387 -52.4324 13.8540 28.9863 -52.0598 -0.5707 4.7521 -68.3152 33.4577 27.4037 -36.1528 12.9454 17.3583 -5.4127 20.0550 -0.4150 -1.0266 26.8375 -34.8174 -37.0001 27.7423 -95.1589 -24.7619 -35.5064 -5.8705 -0.0592 -6.2518 24.5228 -9.9670 -3.6862 0.8725 -47.1908 22.5047 22.9868 54.2947 -7.8517 55.4147 63.6348 -1.2010 49.0434 45.1778 -0.0041 32.7406 65.1478 -12.2430 45.4295 61.3624 -12.3789 39.6945 47.8016 -7.7912 32.6309 56.7367 -5.5203 23.6682 60.4586 -25.2965 40.6156 54.1558 -15.1877 30.9916 64.0709 -5.4640 9.9275 50.5253 -31.9108 32.0534 50.1594 -23.6109 16.3492 5.6289 15.1693 -36.4040 0.2167 -8.5602 27.6586 -11.8277 -2.4326 6.0874 -0.0000 0.0000 -1.0635 -16.8927 -16.1678 7.2600 -1.4147 -6.3245 27.5643 16.0817 3.8789 -24.8551 0.0000 0.0000 -0.5050 
0.5181 87.5247 3.0597 0.8043 -25.2213 -3.1973 4.1268 17.2364 3.9856 3.1445 2.1125 3.4044 3.1539 2.1663 3.3718 -3.7825 1.1844 2.0488 -7.7778 2.1273 5.2090 3.2824 -12.3073 3.1043 -12.8443 -11.1079 -35.1501 42.2428 -27.0006 -106.4932 22.9995 0.0523 5.3076 3.6160 -2.7030 13.2209 6.8594 5.2537 10.8708 31.9400 1.4483 45.4003 -54.3320 3.3256 46.0729 -69.0843 1.8907 47.8167 -47.8763 -1.9280 31.4059 -65.6700 6.0731 36.8151 -67.7850 13.4216 37.1899 -50.7746 6.9461 28.9869 -57.6167 1.0977 18.6568 -66.0973 24.2951 32.3387 -52.4324 13.8540 28.9863 -52.0598 -0.5707 4.7520 -68.3151 33.4577 27.4037 -36.1528 12.9454 17.3583 -5.8629 19.6161 -0.5623 0.6495 26.9506 -33.4441 -37.3928 27.7190 -96.0025 -24.4183 -34.6373 -7.8632 -0.0592 -6.2518 24.5228 -9.9670 -3.6862 0.8725 -47.1907 22.5047 22.9868 54.2946 -7.8517 55.4147 63.6348 -1.2010 49.0435 45.1778 -0.0041 32.7406 65.1478 -12.2430 45.4295 61.3624 -12.3789 39.6945 47.8015 -7.7912 32.6310 56.7366 -5.5203 23.6682 60.4586 -25.2966 40.6156 54.1558 -15.1877 30.9917 64.0709 -5.4640 9.9275 50.5253 -31.9108 32.0534 50.1594 -23.6109 16.3492 5.0869 15.2639 -34.9782 -0.2554 -8.3009 28.0255 -10.7093 -3.7675 8.7231 0.0000 -0.0000 -0.5850 -18.2400 -16.5369 10.9920 -2.0671 -5.7649 22.4919 15.9572 3.3182 -22.6189 0.0000 0.0000 -2.4076 
1.4734 87.6330 4.2123 1.7001 -25.6375 -4.0446 3.6226 17.3135 4.3370 2.6043 2.1677 3.6180 2.6189 2.2039 3.5931 -3.4588 1.0418 2.1950 -7.9666 1.8762 5.1399 3.1366 -12.3744 3.1407 -12.0605 -11.7239 -35.9970 40.8697 -27.2891 -103.4839 22.0871 -0.1799 5.2484 3.6160 -2.7030 13.2209 6.8593 5.2537 10.8708 31.9400 1.4483 45.4003 -54.3320 3.3256 46.0729 -69.0843 1.8907 47.8167 -47.8763 -1.9280 31.4059 -65.6700 6.0730 36.8151 -67.7850 13.4216 37.1899 -50.7746 6.9461 28.9869 -57.6166 1.0977 18.6568 -66.0973 24.2951 32.3387 -52.4324 13.8540 28.9863 -52.0598 -0.5707 4.7520 -68.3152 33.4577 27.4037 -36.1528 12.9454 17.3583 -5.7322 19.5391 -0.5139 1.9322 27.1417 -32.3125 -37.6702 27.6994 -96.5990 -24.5383 -34.0824 -8.7931 -0.0592 -6.2518 24.5228 -9.9670 -3.6861 0.8725 -47.1907 22.5047 22.9868 54.2946 -7.8517 55.4147 63.6348 -1.2010 49.0435 45.1778 -0.0041 32.7406 65.1478 -12.2431 45.4295 61.3624 -12.3789 39.6945 47.8016 -7.7912 32.6310 56.7366 -5.5203 23.6681 60.4586 -25.2966 40.6156 54.1558 -15.1877 30.9917 64.0709 -5.4640 9.9275 50.5253 -31.9108 32.0534 50.1594 -23.6109 16.3491 4.0420 15.0562 -34.2678 -1.4930 -7.4136 31.3890 -8.5425 -4.2235 6.8461 0.0000 0.0000 -0.3964 -21.4277 -17.2881 12.2263 -2.3303 -3.9397 22.4150 16.8408 2.7035 -19.2527 0.0000 0.0000 -7.1780 
2.4676 87.9790 5.3604 2.5622 -27.0946 -4.3622 3.1348 17.5513 4.3801 2.1677 2.4073 3.6285 2.1850 2.4347 3.6068 -3.3285 1.0010 2.3656 -8.3310 1.9898 5.0807 2.9309 -12.0253 3.1203 -11.8621 -12.1638 -36.0369 39.0518 -27.5680 -99.5381 22.0704 -0.6411 5.5049 3.6160 -2.7030 13.2209 6.8593 5.2537 10.8707 31.9400 1.4483 45.4003 -54.3320 3.3256 46.0729 -69.0843 1.8907 47.8167 -47.8763 -1.9280 31.4059 -65.6700 6.0731 36.8151 -67.7850 13.4216 37.1899 -50.7746 6.9461 28.9869 -57.6167 1.0977 18.6568 -66.0973 24.2951 32.3387 -52.4324 13.8540 28.9863 -52.0598 -0.5707 4.7520 -68.3152 33.4577 27.4037 -36.1528 12.9454 17.3583 -5.0993 19.8365 -0.2947 2.3301 27.4071 -31.7164 -37.6659 27.6998 -96.5895 -24.7912 -33.7018 -8.9406 -0.0592 -6.2518 24.5228 -9.9670 -3.6862 0.8725 -47.1907 22.5047 22.9868 54.2946 -7.8517 55.4147 63.6348 -1.2010 49.0435 45.1778 -0.0041 32.7406 65.1477 -12.2430 45.4295 61.3624 -12.3789 39.6945 47.8015 -7.7912 32.6310 56.7366 -5.5203 23.6681 60.4586 -25.2966 40.6156 54.1558 -15.1877 30.9917 64.0709 -5.4640 9.9275 50.5253 -31.9108 32.0534 50.1594 -23.6109 16.3491 3.0632 14.7524 -33.3640 -2.2031 -6.6973 34.4094 -6.8925 -3.8760 2.8873 0.0000 -0.0000 -0.2094 -23.9585 -17.8178 10.6672 -3.0545 -1.1287 24.6315 17.1965 1.7412 -14.6142 -0.0000 0.0000 -12.7953 
